<?xml version="1.0" encoding="UTF-8" standalone="no"?>
<!-- Generated by Microsoft Visio, SVG Export logo.svg Page-1 -->

<svg
   width="3.94551in"
   height="3.69586in"
   viewBox="0 0 284.076 266.102"
   xml:space="preserve"
   color-interpolation-filters="sRGB"
   class="st5"
   version="1.1"
   id="svg1177"
   sodipodi:docname="logo.svg"
   inkscape:version="1.2 (dc2aedaf03, 2022-05-15)"
   xmlns:inkscape="http://www.inkscape.org/namespaces/inkscape"
   xmlns:sodipodi="http://sodipodi.sourceforge.net/DTD/sodipodi-0.dtd"
   xmlns="http://www.w3.org/2000/svg"
   xmlns:svg="http://www.w3.org/2000/svg"><defs
   id="defs1181" /><sodipodi:namedview
   id="namedview1179"
   pagecolor="#ffffff"
   bordercolor="#666666"
   borderopacity="1.0"
   inkscape:showpageshadow="2"
   inkscape:pageopacity="0.0"
   inkscape:pagecheckerboard="0"
   inkscape:deskcolor="#d1d1d1"
   inkscape:document-units="in"
   showgrid="false"
   inkscape:zoom="0.66515869"
   inkscape:cx="105.98975"
   inkscape:cy="178.15298"
   inkscape:window-width="1500"
   inkscape:window-height="930"
   inkscape:window-x="-6"
   inkscape:window-y="-6"
   inkscape:window-maximized="1"
   inkscape:current-layer="svg1177" />
	<style
   type="text/css"
   id="style1140">
	<![CDATA[
		.st1 {fill:#3999c6;stroke:none;stroke-linecap:butt;stroke-width:9.5625}
		.st2 {fill:#fcd116;stroke:none;stroke-linecap:butt;stroke-width:9.5625}
		.st3 {fill:#ff8c00;fill-opacity:0.3;stroke:none;stroke-linecap:butt;stroke-width:9.5625}
		.st4 {fill:#ff0000;stroke:none;stroke-linecap:butt;stroke-width:0.75}
		.st5 {fill:none;fill-rule:evenodd;font-size:12px;overflow:visible;stroke-linecap:square;stroke-miterlimit:3}
	]]>
	</style>

	
<path
   sodipodi:type="star"
   style="fill:#ececff;fill-rule:evenodd;stroke:#9370db;stroke-width:14.9612;stroke-linejoin:round;stroke-opacity:1;fill-opacity:1"
   id="path1517"
   inkscape:flatsided="true"
   sodipodi:sides="6"
   sodipodi:cx="51.115623"
   sodipodi:cy="78.176834"
   sodipodi:r1="59.303391"
   sodipodi:r2="51.358242"
   sodipodi:arg1="1.0390723"
   sodipodi:arg2="1.562671"
   inkscape:rounded="0"
   inkscape:randomized="0"
   d="M 81.183634,129.29246 21.882201,129.77431 -8.1858094,78.658684 21.047613,27.061212 80.349046,26.579362 110.41706,77.694984 Z"
   transform="matrix(2.0754001,0,0,2.0754001,36.549412,-28.696154)" /><g
   id="g5349"
   transform="matrix(2.450882,0,0,2.450882,63.598815,57.059005)">
	<path
   fill="#3999c6"
   d="m 63.6,32.4 c 0.6,-0.6 0.5,-1.7 0,-2.3 L 60.5,27 46.7,13.6 C 46.1,13 45.2,13 44.5,13.6 v 0 c -0.6,0.6 -0.8,1.7 0,2.3 L 59,30.1 c 0.6,0.6 0.6,1.7 0,2.3 L 44.2,47.1 c -0.6,0.6 -0.6,1.7 0,2.3 v 0 c 0.6,0.6 1.7,0.5 2.2,0 L 60.1,35.8 c 0,0 0,0 0.1,-0.1 z"
   id="path5341" />
	<path
   fill="#3999c6"
   d="m 0.4,32.4 c -0.6,-0.6 -0.5,-1.7 0,-2.3 L 3.5,27 17.3,13.6 c 0.6,-0.6 1.5,-0.6 2.2,0 v 0 c 0.6,0.6 0.8,1.7 0,2.3 L 5.3,30.1 c -0.6,0.6 -0.6,1.7 0,2.3 l 14.5,14.7 c 0.6,0.6 0.6,1.7 0,2.3 v 0 c -0.6,0.6 -1.7,0.5 -2.2,0 L 3.6,36 c 0,0 0,0 -0.1,-0.1 z"
   id="path5343" />
	<polygon
   fill="#fcd116"
   points="48,22.4 34.6,22.4 47.6,2.5 28.1,2.5 17.6,32.1 30.4,32.2 20.4,61.5 "
   id="polygon5345" />
	<polygon
   opacity="0.3"
   fill="#ff8c00"
   enable-background="new    "
   points="20.4,61.5 48,22.4 34.6,22.4 47.6,2.5 37.4,2.5 26.6,27.1 39.4,27.2 "
   id="polygon5347" />
</g></svg>
